<?xml version="1.0" encoding="UTF-8" standalone="no"?>

<svg xmlns="http://www.w3.org/2000/svg" width="800" height="600">   




	<text x="350" y="450" 
    	fill="black">spaccato interno</text>
    
	<rect 
		x="400" y="205" 
  		width="35" height="195" 
    	style="fill:gray;stroke-width:3;stroke:rgb(0,0,0)" />  
  
	<rect 
		x="365" y="200" 
  		width="70" height="5" 
    	style="fill:gray;stroke-width:3;stroke:rgb(0,0,0)" /> 
   
	<polygon 
  		points="365,205 370,205 370,395 400,395 400,400 365,400"
 		style="fill:gray;stroke-width:3;stroke:rgb(0,0,0)" /> 
 
	<rect 
		x="370" y="205" 
  		width="5" height="20" 
    	style="fill:black;stroke-width:3;stroke:rgb(0,0,0)" /> 
  
	<line 
   		x1="400" y1="180" 
   		x2="400" y2="420" 
   		style="stroke:red;stroke-width:2" />
        
	<line 
   		x1="370" y1="190" 
   		x2="400" y2="190" 
   		style="stroke:blue;stroke-width:2" />
    
	<text x="380" y="180" 
    		fill="black">ri</text>
        
	<line 
   		x1="340" y1="205" 
   		x2="340" y2="395" 
   		style="stroke:blue;stroke-width:2" />
    
    	<text x="325" y="300" 
    		fill="black">hi</text>
    
    	<line 
   		x1="330" y1="205" 
   		x2="330" y2="225" 
   		style="stroke:blue;stroke-width:2" />
    
    	<text x="310" y="215" 
    		fill="black">hf</text>
	
    
    
    
    	<text x="500" y="450" 
    		fill="black">vista laterale</text>
    
    	<text x="500" y="465" 
    		fill="black">disassemblato</text>
        
	<rect 
		x="500" y="205" 
  		width="70" height="195" 
    		style="fill:gray;stroke-width:3;stroke:rgb(0,0,0)" />
    
	<rect 
		x="500" y="205" 
  		width="70" height="195" 
    		style="fill:gray;stroke-width:3;stroke:rgb(0,0,0)" /> 

	<rect 
		x="500" y="150" 
  		width="70" height="5" 
    		style="fill:gray;stroke-width:3;stroke:rgb(0,0,0)" /> 
    
	<rect 
		x="505" y="155" 
  		width="60" height="20" 
    		style="fill:black;stroke-width:3;stroke:rgb(0,0,0)" />
   
   
   
   
	<text x="220" y="450" 
    		fill="black">vista superiore</text>
    
	<text x="220" y="465" 
    		fill="black">vista laterale</text>
   
	<rect 
		x="225" y="205" 
  		width="70" height="195" 
    		style="fill:gray;stroke-width:3;stroke:rgb(0,0,0)" /> 

	<rect 
		x="225" y="200" 
  		width="70" height="5" 
    		style="fill:gray;stroke-width:3;stroke:rgb(0,0,0)" />

	<circle 
    		cx="260" cy="150" r="35" 
        	stroke="black" stroke-width="3" fill="gray" />
        
	
  
</svg>